<?xml version="1.0" encoding="UTF-8"?><svg id="Livello_2" xmlns="http://www.w3.org/2000/svg" viewBox="0 0 704.57 234.06"><defs><style>.cls-1{fill:#fff;stroke-width:0px;}</style></defs><g id="logo_bianco"><path class="cls-1" d="m544.75,221.86c-7.58,0-13.49-.07-16.11-.19l12.61-47.12h40.15l-3.17,11.83h-28.29l-1.5,5.71,1.43.04c1.32.03,6,.05,13.92.05,3.29,0,6.54,0,9.04,0l-2.39,1.06c-7.44,3.31-15.13,6.73-22.74,9.97-2.35,1-3.39,2.63-3.47,5.46l-.03,1.17h27.75l-3.11,11.7c-2.7.18-12.98.33-24.08.33Z"/><path class="cls-1" d="m506.17,186.47h-14.13l3.17-11.91h39.5c-.76,1.19-1.52,2.37-2.29,3.55-1.55,2.39-3.14,4.86-4.66,7.33-.45.74-.86.96-1.74.96h-.19c-.92-.04-1.85-.05-2.78-.05-.66,0-1.33,0-2,0-.69,0-1.38.01-2.09.01h-.86l-.23.83c-.5,1.79-6.52,24.1-9.05,33.61-.26.98-.5,1.57-1.09,2.02-3.56,2.77-7.11,5.57-10.65,8.36l-3.62,2.85,12.72-47.58Z"/><path class="cls-1" d="m598.45,221.84c-5.46-.03-10.93-.04-16.39-.04-2.47,0-4.94,0-7.41,0l12.65-47.24h11.8l-9.41,35.29h17.1c-1.13,1.77-2.27,3.54-3.4,5.3-1.23,1.91-2.46,3.82-3.68,5.73-.51.8-.72.96-1.24.96h-.01Z"/><path class="cls-1" d="m633.8,221.84c-5.46-.04-10.93-.04-16.4-.04-2.44,0-4.89,0-7.33,0l12.66-47.27h11.76c-1.37,5.62-4.85,18.5-7.22,27.28-.77,2.85-1.41,5.21-1.79,6.64l-.38,1.43h17.09c-.9,1.41-1.81,2.82-2.72,4.23-1.47,2.28-2.93,4.56-4.39,6.85-.49.77-.73.89-1.27.89h-.01Z"/><path class="cls-1" d="m658.15,174.5h11.63c-1.6,6.28-8.63,32.95-12.3,46.52-.19.71-.61,1.42-1.05,1.77-4.22,3.41-8.55,6.81-12.75,10.11l-1.49,1.17,15.95-59.56Z"/><path class="cls-1" d="m58.9,0l51.56,112.08.93-2.63c1.72-4.83,8.09-27.98,18.94-68.78l.42-1.59h38.8c-14.89,55.58-43.68,162.22-48.69,180.37l-54.23-101.96-.85,2.47c-.4,1.18-11.05,40.42-16.12,59.48-.34,1.29-.88,2.12-1.86,2.9-11.63,9.14-23.25,18.3-34.86,27.46l-12.95,10.21L58.9,0Z"/><path class="cls-1" d="m366.5,160.72l32.34-120.74h103.27c-7.51,28.14-15.03,56.19-22.55,84.27l-9.77,36.48h-103.28Zm41.69-32.98h37.56l14.7-54.8h-37.55l-14.71,54.8Z"/><path class="cls-1" d="m182.19,39.09h38.79l-.59,2.23c-.67,2.57-1.33,5.08-2,7.59l-34.91,130.37-1.86,3.04c-2.43,1.92-32.16,25.32-47.86,37.7l48.44-180.93Z"/><path class="cls-1" d="m543.48,160.91c-14.84-.03-29.68-.03-44.52-.04h-17.12c-.3,0-.61-.02-.94-.05l32.34-120.78h32.86l-23.37,87.27,1.17.25c1.08.23,2.19.33,3.62.33.56,0,1.11-.01,1.66-.03.52-.01,1.04-.03,1.56-.03.2,0,.4,0,.6,0,.94.02,1.89.03,2.83.03.74,0,1.47,0,2.21,0,.73,0,1.46,0,2.19,0h27.45c-.03.05-.06.11-.1.16-2.2,3.43-4.4,6.86-6.61,10.28-4.58,7.13-9.16,14.26-13.72,21.4-.59.92-1.08,1.21-2.08,1.21h-.01Z"/><path class="cls-1" d="m393.92,221.86h-12.8l-4.25-26.29-1.6,2.09c-.27.36-.51.66-.73.94-.43.55-.76.98-1.07,1.42l-2.85,4.07c-3.76,5.36-7.64,10.91-11.41,16.41-.7,1.02-1.3,1.37-2.37,1.37h-.17c-1.41-.05-2.94-.07-4.8-.07-1.08,0-2.17,0-3.24.01-.55,0-1.1,0-1.64.01,12.65-18.69,25.3-37.37,37.95-56.04l7.55,52.5,2.38.19,11.79-43.94h40.11c-.02.17-.05.33-.09.48-.57,2.15-1.14,4.29-1.71,6.43-1,3.73-1.99,7.45-2.95,11.18-.23.88-.64,1.34-1.59,1.73-2.41,1.01-4.77,2.06-7.26,3.17-1,.45-4.07,1.8-4.07,1.8l8.28,19.53,35.9-52.77c1.84,10.09,7.36,48.46,7.96,55.62h-11.6l-4.23-26.14-1.6,2.1c-.77,1.01-11.35,15.98-16.05,22.85-.7,1.03-1.3,1.36-2.47,1.36-2.47-.04-6.25-.06-11.34-.06-3.64,0-6.98,0-8.58.01h-.14l-9.56-26.6,14.82-6.57-.65-2.1h-14.59l-2.44,9.35c-.16.48-.31.97-.45,1.46l-1.12,4.15c-1.72,6.41-3.44,12.82-5.12,19.24-.28,1.09-.77,1.83-1.62,2.49-3.35,2.59-6.72,5.25-9.98,7.83-1.26.99-2.51,1.99-3.77,2.98l3.18-12.17Z"/><path class="cls-1" d="m183.07,219.87l48.53-181.17h155.89l-14.24,53.25h-102.33l-19.97,74.44,1.42.05c1.56.06,19.55.08,53.45.08,18.69,0,36.99,0,44.9-.01h2.5s-14.26,53.36-14.26,53.36h-155.9Zm50.07-177.94c-15.44,57.61-30.84,115.08-46.24,172.55-.1.36-.14.71-.17,1.03l-.04.29c-.04.31.01.63.15.9.12.24.29.38.4.48l.42.38h149.52l13.05-48.81h-102.33l21.2-79.03h102.33l13-48.64h-151.08l-.23.84Z"/><path class="cls-1" d="m568.95,160.77c7.26-27.2,14.52-54.3,21.79-81.42,3.51-13.11,7.03-26.22,10.54-39.35h103.28l-32.35,120.77h-103.27Zm41.7-33.08h37.56l14.7-54.77h-37.55l-14.7,54.77Z"/><path class="cls-1" d="m647.56,28.65l-4.22-10.53c1.57-.18,4.43-.33,8.19-.33,2.48,0,4.89.07,6.9.19l4.27,10.67h-15.13Z"/></g></svg>